<svg xmlns="http://www.w3.org/2000/svg" viewBox="0 0 324 96" width="324" height="96"><title>Asset 2-svg</title><style>		.s0 { fill: #010101 } 		.s1 { fill: #ffffff } 		.s2 { fill: #000000 } 		.s3 { fill: #ffffff;stroke: #ffffff;stroke-miterlimit:10;stroke-width: .4 } 		.s4 { fill: #e84436 } 		.s5 { fill: #fbbc0c } 		.s6 { fill: #517cbe } 		.s7 { fill: #32a853 } 	</style><g id="uuid-1a2fa69c-1a74-415d-a389-6b5fdbfe3864"><path id="Layer" class="s0" d="m657.9 81.7c0 7.9-6.4 14.3-14.2 14.3h-263c-7.9 0-14.3-6.4-14.3-14.3v-66.7c0-7.9 6.4-14.3 14.3-14.3h263c7.8 0 14.2 6.4 14.2 14.3z"></path><path id="Layer" class="s1" d="m442.2 62.9c-1.5 3.2-2.2 4.7-4.1 7.6-2.6 4-6.3 9-10.9 9-4.1 0-5.1-2.7-10.7-2.6-5.5 0-6.7 2.6-10.8 2.6-4.6 0-8.1-4.5-10.7-8.5-7.4-11.2-8.2-24.4-3.6-31.4 3.2-4.9 8.3-7.8 13.1-7.8 4.8 0 7.9 2.6 11.9 2.6 4.1 0 6.3-2.6 12-2.6 4.2 0 8.7 2.3 12 6.3-10.6 5.8-8.9 20.8 1.8 24.8z"></path><path id="Layer" class="s1" d="m424.1 27.3c2.1-2.6 3.6-6.3 3.1-10.1-3.4 0.2-7.3 2.3-9.6 5.1-2.1 2.5-3.8 6.3-3.1 9.9 3.6 0.1 7.4-2.1 9.6-4.9z"></path><path id="Layer" fill-rule="evenodd" class="s1" d="m478.3 39.5l10.6 31h-4.9l-3.3-9.5h-10.2l-3.1 9.5h-4.9l10.6-31c0 0 5.2 0 5.2 0zm-2.7 5.1q-0.6 2.3-1.2 4.3l-2.8 8.3h8l-2.8-8.3c-0.5-1.5-0.9-2.9-1.2-4.3z"></path><path id="Layer" fill-rule="evenodd" class="s1" d="m509.4 50.7c1.8 2.1 2.8 5 2.8 8.3 0 3.7-1.1 6.8-3.2 9-1.8 1.9-4.4 3-7.1 3-2.6 0-4.9-1-6.4-2.8v11.2h-4.7v-23.9c0-3.1-0.1-5.2-0.2-7.1v-0.4h4.3l0.2 3.1c1.7-2.4 4.3-3.6 7.5-3.6 2.6 0 5.1 1.2 6.8 3.2zm-13.7 5.3q0 0.1 0 0.3c-0.1 0.4-0.2 0.9-0.2 1.2v3.8q0 0.9 0.2 1.5c0.6 2.5 2.9 4.3 5.5 4.3 3.9 0 6.2-3 6.2-8 0-3.8-1.8-7.7-6-7.7-2.7 0-5 1.9-5.7 4.6z"></path><path id="Layer" fill-rule="evenodd" class="s1" d="m533.6 50.7c1.8 2.1 2.8 5 2.8 8.3 0 3.7-1.1 6.8-3.2 9-1.8 1.9-4.5 3-7.1 3-2.6 0-5-1-6.4-2.8v11.2h-4.7v-23.9c0-3.1-0.1-5.2-0.2-7.1v-0.4h4.3l0.2 3.1c1.7-2.4 4.2-3.6 7.4-3.6 2.7 0 5.2 1.2 6.9 3.2zm-13.7 5.3q0 0.1-0.1 0.3c0 0.4-0.1 0.9-0.1 1.2v3.8q0 0.9 0.2 1.5c0.6 2.5 2.9 4.3 5.5 4.3 3.8 0 6.2-3 6.2-8 0-3.8-1.9-7.7-6-7.7-2.7 0-5 1.9-5.7 4.6z"></path><path id="Layer" class="s1" d="m557 52.6c-4.4-1.7-5.8-3-5.8-5.5 0-2 1.7-4.1 5.4-4.1 3 0 5 1 5.5 1.3l0.4 0.3 1.3-3.9-0.2-0.2c-0.8-0.4-3.1-1.5-6.9-1.5-6 0-10.1 3.5-10.1 8.6 0 4.1 2.6 6.9 8.2 8.9 4 1.5 5.5 3.1 5.5 5.7 0 2.9-2.3 4.8-6 4.8-2.4 0-4.9-0.7-6.8-2l-0.4-0.2-1.2 4 0.2 0.2c1.8 1.1 5.1 2 7.9 2 8.1 0 11-4.9 11-9.1 0-4.2-2.3-7.1-8-9.3z"></path><path id="Layer" class="s1" d="m573.4 42.7l-4.6 1.4v3.9h-3.4v3.8h3.4v11.4c0 2.8 0.5 4.8 1.6 6 1.1 1.2 2.7 1.8 4.6 1.8 1.7 0 3-0.4 3.6-0.6l0.3-0.1-0.3-3.7-0.4 0.1c-0.6 0.2-1.2 0.3-2.2 0.3-1.8 0-2.6-1.2-2.6-3.9v-11.3h5.7v-3.8h-5.7z"></path><path id="Layer" fill-rule="evenodd" class="s1" d="m590.7 47.5c3.2 0 5.9 1.1 7.9 3.2 1.9 2.1 2.9 5 2.9 8.3 0 8.2-5.7 12-11.1 12h-0.1c-6.3 0-10.7-4.6-10.7-11.6 0-7 4.5-11.9 11.1-11.9zm-0.1 3.7c-4.4 0-6.3 4.1-6.3 8.1 0 4.6 2.6 8 6.1 8h0.1c3.6 0 6.2-3.4 6.2-8.1 0-3.9-1.9-8-6.1-8z"></path><path id="Layer" class="s1" d="m615.9 47.7h-0.2c-0.4-0.1-0.8-0.2-1.2-0.2-2.5 0-4.7 1.5-5.9 3.8l-0.1-3.3h-4.2v0.4c0.1 1.9 0.2 3.9 0.2 6.8l-0.1 15.3h4.7v-12q0-0.9 0.2-1.8c0.5-2.9 2.4-4.7 4.9-4.7 0.5 0 0.9 0 1.3 0.1h0.5v-4.4z"></path><path id="Layer" fill-rule="evenodd" class="s1" d="m626.5 47.5c6.9 0 9.3 5.7 9.3 10.6q0 1.3-0.1 2l-0.1 0.3-15.1-0.1c0.3 6.1 5 6.8 7 6.8 2.9 0 4.6-0.5 5.9-1l0.4-0.2 0.9 3.5-0.3 0.1c-1.4 0.7-3.9 1.5-7.4 1.5-6.8 0-11.1-4.2-11.1-11.4 0-7.1 4.3-12.1 10.6-12.1zm-6 9.2h10.8c-0.1-1-0.3-3-1.7-4.4q-1.3-1.3-3.4-1.3c-3.5 0-5.2 3-5.7 5.7z"></path><path id="Layer" fill-rule="evenodd" class="s1" d="m462.5 18.3c1.3-0.2 2.8-0.3 4.5-0.3 3 0 5.2 0.6 6.6 1.8 1.5 1.2 2.4 2.9 2.4 5.3 0 2.4-0.9 4.3-2.4 5.7-1.5 1.4-4.1 2.1-7.2 2.1-1.6 0-2.8 0-3.9-0.2zm2.1 13c0.6 0.1 1.4 0.1 2.2 0.1 4.5 0 6.9-2.2 6.9-6.2 0-3.5-2.1-5.7-6.6-5.7-1.1 0-1.9 0.1-2.5 0.2 0 0 0 11.6 0 11.6z"></path><path id="Layer" fill-rule="evenodd" class="s1" d="m483.5 33c-3.1 0-5.6-2.1-5.6-5.4 0-3.5 2.6-5.6 5.8-5.6 3.2 0 5.6 2.2 5.6 5.4 0 3.9-3 5.6-5.8 5.6zm0.1-1.4c2 0 3.6-1.7 3.6-4.1 0-1.8-1-4.1-3.5-4.1-2.6 0-3.6 2.1-3.6 4.1 0 2.3 1.4 4.1 3.5 4.1z"></path><path id="Layer" class="s1" d="m492.7 22.2l1.6 5.4c0.3 1.2 0.6 2.3 0.8 3.3h0.1c0.3-1 0.7-2.1 1.1-3.3l1.9-5.4h1.8l1.8 5.3c0.4 1.2 0.7 2.4 1 3.5h0.1c0.2-1.1 0.5-2.2 0.9-3.5l1.7-5.3h2.1l-3.8 10.6h-2l-1.7-5c-0.5-1.2-0.8-2.3-1.1-3.5-0.3 1.2-0.7 2.3-1.1 3.5l-1.9 5h-1.9l-3.6-10.5h2.2z"></path><path id="Layer" class="s1" d="m509.7 25.1c0-1.1 0-2-0.1-2.9h1.9l0.1 1.8h0.1c0.5-1 1.9-2 3.8-2 1.6 0 4.2 0.9 4.2 4.5v6.3h-2.2v-6.1c0-1.7-0.7-3.1-2.7-3.1-1.4 0-2.4 0.9-2.8 1.9-0.1 0.3-0.2 0.6-0.2 0.9v6.4h-2.1v-7.7z"></path><path id="Layer" class="s1" d="m523.1 17.3h2.2v15.5h-2.2z"></path><path id="Layer" fill-rule="evenodd" class="s1" d="m533.6 33c-3.2 0-5.6-2.1-5.6-5.4 0-3.5 2.6-5.6 5.8-5.6 3.2 0 5.6 2.2 5.6 5.4 0 3.9-3 5.6-5.8 5.6zm0.1-1.4c2 0 3.5-1.7 3.5-4.1 0-1.8-1-4.1-3.5-4.1-2.5 0-3.6 2.1-3.6 4.1 0 2.3 1.5 4.1 3.5 4.1h0.1z"></path><path id="Layer" fill-rule="evenodd" class="s1" d="m550.4 30.3c0 0.9 0 1.8 0.1 2.5h-1.9l-0.2-1.3c-0.7 0.8-1.9 1.5-3.6 1.5-2.4 0-3.6-1.5-3.6-3 0-2.6 2.5-4 7.1-3.9v-0.2c0-0.9-0.3-2.5-2.7-2.5-1.1 0-2.3 0.3-3.1 0.8l-0.5-1.3c1-0.5 2.4-0.9 3.9-0.9 3.6 0 4.5 2.2 4.5 4.3v3.9zm-2.1-2.8c-2.3 0-5 0.3-5 2.4 0 1.2 1 1.8 2 1.8 1.6 0 2.6-0.9 2.9-1.8q0.1-0.3 0.1-0.6z"></path><path id="Layer" fill-rule="evenodd" class="s1" d="m563.9 17.3v12.8c0 0.9 0 2 0.1 2.7h-1.9l-0.1-1.8c-0.7 1.1-2.1 2-4 2-2.9 0-5.1-2.1-5.1-5.3 0-3.6 2.5-5.7 5.3-5.7 1.8 0 3 0.8 3.5 1.6h0.1v-6.3c0 0 2.1 0 2.1 0zm-2.1 9.2c0-0.2 0-0.5-0.1-0.8-0.3-1.2-1.5-2.2-3.1-2.2-2.2 0-3.5 1.7-3.5 4.1 0 2.1 1.2 3.9 3.4 3.9 1.5 0 2.8-0.9 3.2-2.3q0.1-0.4 0.1-0.8v-1.9z"></path><path id="Layer" fill-rule="evenodd" class="s1" d="m577.4 33c-3.2 0-5.7-2.1-5.7-5.4 0-3.5 2.6-5.6 5.8-5.6 3.3 0 5.7 2.2 5.7 5.4 0 3.9-3 5.6-5.8 5.6 0 0-0.1 0 0 0zm0-1.4c2.1 0 3.6-1.7 3.6-4.1 0-1.8-1-4.1-3.5-4.1-2.5 0-3.6 2.1-3.6 4.1 0 2.3 1.4 4.1 3.5 4.1z"></path><path id="Layer" class="s1" d="m585.9 25.1c0-1.1 0-2-0.1-2.9h1.9l0.1 1.8c0.6-1 2-2 3.9-2 1.6 0 4.1 0.9 4.1 4.5v6.3h-2.1v-6.1c0-1.7-0.7-3.1-2.7-3.1-1.4 0-2.5 0.9-2.9 1.9-0.1 0.3-0.1 0.6-0.1 0.9v6.4h-2.1v-7.7z"></path><path id="Layer" class="s1" d="m607 19.7v2.5h3.1v1.5h-3.1v5.7c0 1.3 0.4 2 1.6 2 0.6 0 0.9 0 1.3-0.1l0.1 1.5c-0.4 0.1-1.1 0.2-1.9 0.2-1 0-1.8-0.3-2.3-0.8-0.6-0.6-0.8-1.5-0.8-2.8v-5.7h-1.9v-1.5h1.9v-1.9l2-0.6z"></path><path id="Layer" class="s1" d="m612.5 17.3h2.1v6.6c0.4-0.5 0.9-1.1 1.6-1.4 0.6-0.3 1.4-0.5 2.2-0.5 1.5 0 4 0.9 4 4.5v6.3h-2.1v-6.1c0-1.7-0.7-3.1-2.7-3.1-1.4 0-2.4 0.9-2.9 1.9-0.1 0.3-0.1 0.6-0.1 0.9v6.4h-2.1c0 0 0-15.5 0-15.5z"></path><path id="Layer" fill-rule="evenodd" class="s1" d="m627.1 27.8c0.1 2.6 1.9 3.7 4 3.7 1.5 0 2.5-0.2 3.3-0.5l0.4 1.3c-0.8 0.3-2.1 0.7-4 0.7-3.6 0-5.7-2.2-5.7-5.3 0-3.2 2.1-5.7 5.5-5.7 3.8 0 4.8 3 4.8 5q0 0.6 0 0.9h-8.3zm6.3-1.4c0-1.2-0.6-3.1-3-3.1-2.1 0-3.1 1.8-3.2 3.1z"></path><path id="Layer" class="s2" d="m0 12c0-6.6 5.4-12 12-12h299.9c6.7 0 12 5.4 12 12v72c0 6.6-5.3 12-12 12h-299.9c-6.6 0-12-5.4-12-12z"></path><path id="Layer" class="s3" d="m113.8 24.6q0 3-1.8 4.8-2 2.1-5.3 2.1c-2.2 0-3.9-0.7-5.3-2.2q-2.2-2.1-2.2-5.3 0-3.2 2.2-5.4 2.2-2.1 5.3-2.1 1.6 0 3 0.5 1.4 0.6 2.3 1.6l-1.3 1.4q-0.7-0.9-1.7-1.3-1.1-0.5-2.3-0.5-2.4 0-4 1.7-1.6 1.6-1.6 4.1 0 2.5 1.6 4.1 1.6 1.7 4 1.6 2.1 0.1 3.6-1.2 1.4-1.2 1.6-3.3h-5.2v-1.7h7q0.1 0.6 0.1 1.1z"></path><path id="Layer" class="s3" d="m124.8 16.8v1.8h-6.5v4.5h5.9v1.8h-5.9v4.5h6.5v1.8h-8.4v-14.4h8.4z"></path><path id="Layer" class="s3" d="m132.7 18.6v12.6h-1.9v-12.6h-4v-1.8h9.9v1.8z"></path><path id="Layer" class="s3" d="m145.7 31.2h-1.9v-14.4h1.9z"></path><path id="Layer" class="s3" d="m153.9 18.6v12.6h-1.9v-12.6h-4v-1.8h9.9v1.8z"></path><path id="Layer" fill-rule="evenodd" class="s3" d="m178.8 24q-0.1 3.2-2.2 5.4-2.1 2.1-5.3 2.1-3.1 0-5.2-2.1-2.2-2.2-2.2-5.4 0-3.2 2.2-5.4 2.1-2.1 5.2-2.1 3.2 0 5.3 2.2 2.1 2.1 2.1 5.3zm-12.9 0q0 2.5 1.6 4.1 1.6 1.7 3.9 1.7 2.4 0 4-1.7 1.6-1.6 1.6-4.1 0-2.5-1.6-4.1-1.6-1.6-4-1.6-2.3-0.1-3.9 1.6-1.6 1.6-1.6 4.1z"></path><path id="Layer" class="s3" d="m183.2 31.2h-1.8v-14.4h2.2l7 11.2h0.1l-0.1-2.8v-8.4h1.8v14.4h-1.9l-7.3-11.7h-0.1l0.1 2.7z"></path><path id="Layer" fill-rule="evenodd" class="s1" d="m173.7 62.4c0 5.9-4.6 10.2-10.2 10.2-5.6 0-10.2-4.3-10.2-10.2 0-5.9 4.6-10.2 10.2-10.2 5.6 0 10.2 4.3 10.2 10.2zm-4.4 0c0-3.7-2.7-6.2-5.8-6.2-3.1 0-5.8 2.6-5.8 6.2 0 3.6 2.7 6.2 5.8 6.2 3.1 0 5.8-2.5 5.8-6.2zm-17.9 0c0 5.9-4.6 10.2-10.2 10.2-5.7 0-10.3-4.3-10.3-10.2 0-5.9 4.6-10.2 10.3-10.2 5.6 0 10.2 4.3 10.2 10.2zm-4.5 0c0-3.7-2.7-6.2-5.7-6.2-3.1 0-5.8 2.6-5.8 6.2 0 3.6 2.7 6.2 5.8 6.2 3 0 5.7-2.5 5.7-6.2zm-32.3-7.1h14.6q0.2 1.2 0.2 2.7c0 3.3-0.9 7.3-3.8 10.2-2.8 2.9-6.3 4.4-11 4.4-8.8 0-16.1-7.1-16.1-15.8 0-8.8 7.3-15.9 16.1-15.9 4.8 0 8.2 1.9 10.8 4.4l-3 3c-1.9-1.7-4.4-3.1-7.8-3.1-6.4 0-11.4 5.2-11.4 11.6 0 6.3 5 11.5 11.4 11.5 4.1 0 6.5-1.7 8-3.2 1.2-1.2 2-3 2.3-5.4h-10.3v-4.4zm108.7 3.4l0.4 1.2-13.6 5.6c1 2.1 2.6 3.1 4.9 3.1 2.3 0 3.9-1.1 5.1-2.8l3.4 2.3c-1.1 1.7-3.8 4.5-8.5 4.5-5.8 0-10.1-4.5-10.1-10.2 0-6.1 4.3-10.2 9.6-10.2 5.3 0 7.9 4.2 8.8 6.5zm-4.8-0.4c-0.5-1.3-2-2.2-3.8-2.2-2.3 0-5.4 2-5.3 6zm-20.2-16.3h4.4v30h-4.4zm-7.4 12.5v-1.7h4.3v18.3c0 7.6-4.5 10.6-9.7 10.6-5 0-8-3.3-9.1-6l3.9-1.6c0.7 1.6 2.4 3.6 5.2 3.6 3.3 0 5.4-2.1 5.4-6v-1.4h-0.1c-1 1.2-3 2.3-5.4 2.3-5.1 0-9.8-4.4-9.8-10.2 0-5.7 4.7-10.2 9.8-10.2 2.4 0 4.3 1 5.4 2.3zm0.3 7.9c0-3.6-2.4-6.2-5.5-6.2-3.1 0-5.7 2.6-5.7 6.2 0 3.6 2.6 6.2 5.7 6.2 3 0 5.5-2.6 5.5-6.2zm53-20.5c5 0 9.8 3.6 9.8 9.4 0 5.7-4.8 9.3-9.8 9.3h-6.2v11.4h-4.5v-30h10.7zm5.4 9.3c0-2.4-1.9-5.2-5.3-5.2h-6.3v10.3h6.3c3.4 0 5.3-2.7 5.3-5.1zm31.5 9.1v11.5h-4.3v-2.3h-0.2c-1 1.6-2.7 2.9-5.7 2.9-3.9 0-7.4-2.6-7.4-6.6 0-4.4 4.3-6.7 8.6-6.7 2.1 0 3.9 0.7 4.7 1.1v-0.3c-0.1-2.4-2.4-3.8-4.7-3.8-1.7 0-3.3 0.5-4.1 2.2l-4-1.7c1.4-3.2 4.8-4.6 8-4.6 5.1 0 9.1 3 9.1 8.3zm-4.3 3.4c-1.2-0.6-2.1-1-4.1-1-2.2 0-4.8 0.9-4.8 3.2 0 1.8 2.1 2.6 3.5 2.6 2.6 0 5-2 5.4-4.8zm25-11l-12.3 28.3h-4.6l4.5-10.1-8-18.2h4.8l5.4 13h0.1l5.1-13zm-45.3-10.8h4.5v30h-4.5z"></path><path id="Layer" class="s4" d="m49.7 46.6l-25.5 27.1q0 0 0 0c0.7 3 3.4 5.2 6.6 5.2 1.3 0 2.5-0.4 3.5-1h0.1l28.8-16.6-13.5-14.7z"></path><path id="Layer" class="s5" d="m75.6 42h-0.1l-12.4-7.2-14 12.4 14.1 14.1 12.3-7.2c2.2-1.2 3.7-3.4 3.7-6.1 0-2.6-1.5-4.8-3.6-6z"></path><path id="Layer" class="s6" d="m24.2 22.3q-0.3 0.8-0.3 1.7v47.9q0 1 0.3 1.8l26.4-26.4c0 0-26.4-25-26.4-25z"></path><path id="Layer" class="s7" d="m49.9 48l13.2-13.2-28.7-16.7c-1-0.6-2.3-1-3.6-1-3.2 0-5.8 2.2-6.6 5.2 0 0 25.7 25.7 25.7 25.7z"></path></g></svg>